<?xml version="1.0" standalone="no"?>
<!DOCTYPE svg PUBLIC "-//W3C//DTD SVG 20010904//EN"
 "http://www.w3.org/TR/2001/REC-SVG-20010904/DTD/svg10.dtd">
<svg version="1.0" xmlns="http://www.w3.org/2000/svg"
 width="906.000000pt" height="1280.000000pt" viewBox="0 0 906.000000 1280.000000"
 preserveAspectRatio="xMidYMid meet">
<metadata>
Created by potrace 1.15, written by Peter Selinger 2001-2017
</metadata>
<g transform="translate(0.000000,1280.000000) scale(0.100000,-0.100000)"
fill="#000000" stroke="none">
<path d="M2105 12786 c-384 -60 -616 -328 -680 -786 -19 -141 -19 -382 0 -535
9 -66 18 -140 21 -165 l6 -45 -693 -789 c-382 -433 -702 -804 -711 -824 -56
-119 -61 -280 -12 -359 77 -123 299 -195 460 -149 57 17 66 25 279 240 121
122 388 399 594 616 618 651 611 645 741 645 53 0 73 -5 105 -27 71 -45 123
-130 168 -273 43 -137 49 -124 -88 -195 -620 -324 -1104 -780 -1289 -1216
l-34 -79 -7 -4402 -7 -4403 178 0 c159 0 842 -7 2474 -25 283 -3 727 -8 985
-11 l470 -6 -2 358 c-3 363 -14 2484 -34 6394 l-10 2145 -37 110 c-100 298
-281 586 -503 800 -208 199 -449 326 -723 381 -78 15 -90 21 -117 53 -52 63
-101 173 -102 230 -1 64 21 97 89 131 l49 25 806 3 807 2 6 -157 c9 -205 11
-222 39 -228 12 -3 135 -23 272 -45 138 -22 374 -61 525 -85 525 -86 1006
-164 1910 -310 360 -59 734 -119 830 -135 96 -16 175 -28 176 -27 1 1 5 570 8
1265 7 1217 7 1262 -11 1262 -10 0 -88 -9 -173 -19 -85 -11 -234 -29 -330 -40
-96 -12 -326 -39 -510 -61 -184 -22 -677 -80 -1095 -130 -418 -50 -816 -97
-885 -105 -69 -9 -270 -33 -448 -54 -177 -21 -325 -40 -327 -43 -2 -2 -7 -74
-11 -161 l-7 -157 -743 0 -744 0 -2 242 -3 243 -230 23 c-126 12 -235 24 -241
26 -6 2 -14 43 -17 93 -15 217 -124 436 -281 564 -78 64 -238 143 -341 169
-165 41 -387 51 -550 26z m365 -436 c98 -15 219 -79 294 -154 105 -105 156
-230 156 -381 0 -151 -50 -273 -155 -379 -178 -180 -463 -213 -670 -78 -379
247 -323 803 98 964 94 36 173 44 277 28z"/>
</g>
</svg>
